<svg id="Titre" xmlns="http://www.w3.org/2000/svg" width="64.000000px" height="64.000000px" viewBox="0 0 64.000000 64.000000">
    <title>ICON_TOOLBAR_MAXIMUS_CUSTOM_PANEL</title>
    <g id="HIGHLIGHT">
        <g fill="#000000" stroke="none">
            <path d="m20 22.25c-.965 0-1.75.785-1.75 1.75s.785 1.75 1.75 1.75 1.75-.785 1.75-1.75-.785-1.75-1.75-1.75zm-.25 1.75c0-.138.112-.25.25-.25s.25.112.25.25c0 .275-.5.275-.5 0z"/>
            <path d="m30 22.25c-.965 0-1.75.785-1.75 1.75s.785 1.75 1.75 1.75 1.75-.785 1.75-1.75-.785-1.75-1.75-1.75zm-.25 1.75c0-.138.112-.25.25-.25s.25.112.25.25c0 .275-.5.275-.5 0z"/>
            <path d="m61 27h-19v-3c0-1.627-.793-3.061-2-3.974v-3.108c2.387-1.386 4-3.964 4-6.918v-3c0-.552-.448-1-1-1h-6.14c-.586-2.119-3.078-4-7.86-4h-8-4c-2.192 0-4.285 1.047-5.6 2.8-.903 1.203-1.4 2.695-1.4 4.2v10.417c-1.765.773-3 2.537-3 4.583v4c0 2.414 1.721 4.434 4 4.899v8.605c-4.202 1.473-8 3.386-8 5.496v14c0 .552.448 1 1 1h32 18c.552 0 1-.448 1-1v-4c0-.552-.448-1-1-1h-6v-5h13c.552 0 1-.448 1-1v-22c0-.552-.448-1-1-1zm-24 0v-6c1.654 0 3 1.346 3 3v3zm-16 10.543c.728.298 1.509.457 2.298.457h3.404c.434 0 .87-.055 1.298-.15v4.406c-2.239 1.283-5.052 1.02-7-.688zm8-10.543c-.552 0-1 .448-1 1v7.776c-.422.144-.862.224-1.298.224h-3.404c-.682 0-1.358-.173-1.956-.5l-4.614-2.529c-1.1-.951-1.728-2.324-1.728-3.781v-8.19c.189 0 .355-.066.506-.157l.009.015 4.762-2.858h14.723v9zm7-19v2c0 3.309-2.691 6-6 6h-.726c1.667-1.467 2.726-3.61 2.726-6v-2zm-6 2c0 3.309-2.691 6-6 6h-3v-2c0-3.309 2.691-6 6-6h3zm8 9.101c-.323-.066-.658-.101-1-.101v-1.069c.341-.043.674-.109 1-.194zm4-9.101c0 3.309-2.691 6-6 6h-.726c1.667-1.467 2.726-3.61 2.726-6v-2h4zm-25-4c.939-1.252 2.434-2 4-2h8c3.043 0 4.951.903 5.668 2h-7.668c-4.411 0-8 3.589-8 8v2.434l-3 1.8v-9.234c0-1.075.355-2.141 1-3zm-5 3c0-1.075.355-2.141 1-3 .736-.982 1.814-1.653 3-1.898-.214.218-.415.451-.6.698-.903 1.203-1.4 2.695-1.4 4.2v10h-2zm-3 19v-4c0-1.654 1.346-3 3-3h1v8.19c0 .62.091 1.225.247 1.81h-1.247c-1.654 0-3-1.346-3-3zm4 5h1.136c.378.58.837 1.112 1.383 1.567.049.042.103.078.16.109l3.321 1.82v2.711c-1.657.395-3.809.951-6 1.635zm-8 14c0-.76 2.424-2.038 6-3.336v12.116l-1.196.24.393 1.961.803-.161v2.18h-6zm23 13h-15v-2.58l7.099-1.42h5.901c1.103 0 2 .897 2 2zm7-3v3h-5v-2c0-2.206-1.794-4-4-4h-6c-.066 0-.131.006-.196.02l-6.804 1.36v-12.405c1.84-.601 3.881-1.186 6-1.707v.732c0 .265.105.52.293.707 1.563 1.563 3.631 2.367 5.713 2.366 1.016 0 2.029-.213 2.994-.601v5.528c0 .552.448 1 1 1h13v5h-6c-.552 0-1 .448-1 1zm18 3h-16v-2h16zm-9-4v-23c0-.551.449-1 1-1s1 .449 1 1v23zm16-7h-12v-16c0-1.654-1.346-3-3-3s-3 1.346-3 3v16h-12v-20h30z"/>
        </g>
    </g>
</svg>
