<svg id="Titre" xmlns="http://www.w3.org/2000/svg" width="64.000000px" height="64.000000px" viewBox="0 0 384.000000 384.000000">
  <title>ICON_TOOLBAR_SKYVECTOR</title>
  <g id="HIGHLIGHT">
<g transform="translate(0.000000,384.000000) scale(0.100000,-0.100000)"
fill="#000000" stroke="none">
<path d="M1535 3634 c-96 -18 -300 -72 -335 -89 -14 -7 -41 -20 -60 -28 -19
-9 -57 -26 -85 -38 -74 -33 -154 -85 -205 -134 -25 -23 -58 -49 -74 -56 -17
-8 -46 -38 -67 -67 -20 -30 -51 -62 -67 -73 -17 -10 -43 -38 -59 -61 -15 -24
-32 -48 -39 -53 -23 -20 -74 -116 -74 -139 0 -13 -6 -28 -13 -34 -12 -10 -36
-56 -95 -182 -34 -73 -66 -201 -63 -254 1 -27 -5 -106 -14 -176 -11 -94 -13
-140 -5 -180 5 -29 10 -76 10 -104 1 -28 7 -62 15 -76 8 -14 14 -34 15 -45 0
-11 7 -33 15 -49 8 -15 15 -47 15 -71 0 -26 6 -47 15 -55 8 -7 15 -18 15 -25
0 -12 11 -38 41 -95 4 -8 18 -35 31 -60 26 -53 72 -123 102 -154 11 -13 41
-51 66 -85 25 -34 55 -70 66 -80 12 -10 23 -23 25 -28 6 -13 179 -153 203
-164 12 -6 39 -21 61 -34 122 -74 154 -85 236 -85 43 0 79 -4 79 -9 0 -11 -35
-21 -77 -21 -22 0 -36 -6 -43 -20 -13 -25 -2 -50 12 -26 11 20 67 21 115 1 48
-20 123 -20 123 0 0 10 -10 15 -27 15 -38 0 -61 15 -38 24 9 3 30 6 47 6 54 0
26 25 -32 28 -29 2 -63 10 -74 18 -11 8 -36 14 -56 14 -19 0 -44 7 -54 15 -11
8 -30 15 -42 15 -12 0 -27 7 -34 15 -7 8 -21 15 -30 15 -31 0 -50 11 -50 29 0
10 -14 27 -31 40 -29 22 -31 22 -44 5 -12 -17 -18 -13 -80 49 -36 37 -73 67
-82 67 -8 0 -20 14 -26 30 -7 19 -18 30 -31 30 -14 0 -17 3 -10 10 7 7 23 5
48 -5 39 -16 72 -14 61 5 -3 5 -17 10 -31 10 -17 0 -27 8 -34 24 -4 13 -19 26
-32 30 -22 6 -75 69 -91 109 -7 19 -8 19 -26 3 -18 -16 -20 -16 -40 10 -11 15
-21 32 -21 39 0 7 -7 15 -15 19 -10 3 -15 19 -15 42 0 33 -2 36 -24 30 -21 -5
-25 -2 -31 31 -8 44 -32 93 -45 93 -5 0 -2 12 6 28 18 35 18 82 -1 118 -8 16
-15 37 -15 46 0 9 -9 20 -20 23 -11 3 -20 11 -20 17 0 6 -7 20 -17 30 -13 15
-14 23 -5 44 7 13 12 37 12 52 -1 25 -2 25 -14 10 -7 -10 -17 -18 -21 -18 -14
0 2 184 20 230 10 25 20 70 22 100 3 30 9 59 14 65 5 5 9 17 9 26 0 9 7 20 15
23 9 3 27 30 41 60 20 43 28 53 44 49 17 -5 18 -1 13 31 -4 24 -2 36 6 36 6 0
11 9 11 20 0 11 -6 20 -14 20 -8 0 -18 9 -21 20 -12 39 -23 19 -24 -45 0 -58
-3 -68 -27 -90 -15 -14 -30 -25 -34 -25 -4 0 -11 -19 -14 -42 -10 -64 -22 -79
-36 -43 -14 36 -4 112 16 132 8 8 14 30 14 48 0 26 10 45 40 77 22 24 40 51
40 60 0 9 4 20 10 23 5 3 18 26 29 50 11 26 27 45 35 45 9 0 16 9 16 20 0 11
-7 20 -15 20 -19 0 -19 24 0 44 8 8 15 18 15 22 0 16 45 74 58 74 7 0 15 7 18
15 4 8 20 30 36 47 27 29 31 30 40 15 12 -22 31 -12 23 12 -4 12 2 21 20 29
14 6 25 18 25 27 0 8 7 15 15 15 8 0 15 8 15 19 0 25 66 88 99 94 15 3 52 24
81 46 62 46 76 50 85 20 5 -16 -1 -30 -25 -54 -33 -34 -33 -55 1 -55 14 0 19
-7 19 -30 0 -25 -4 -30 -25 -30 -14 0 -36 6 -48 14 -31 20 -100 6 -126 -25
-10 -13 -17 -27 -14 -31 7 -13 51 -9 90 7 48 20 61 19 65 -6 2 -12 12 -27 23
-33 11 -6 25 -18 32 -26 11 -13 15 -13 27 3 15 20 53 19 49 -1 -2 -7 -4 -17
-5 -24 -2 -6 5 -13 14 -15 24 -6 68 86 68 145 0 39 6 53 35 84 18 20 42 39 52
42 10 3 27 25 38 48 19 40 24 44 70 51 27 5 58 15 67 24 15 13 23 14 44 5 35
-16 79 -15 94 3 7 8 18 15 26 15 7 0 29 11 48 24 28 19 44 23 79 19 27 -3 47
-1 51 6 9 14 56 14 56 0 0 -7 12 -9 35 -5 20 4 44 2 57 -5 12 -7 37 -12 55
-11 18 1 42 -7 55 -18 18 -15 33 -17 72 -13 39 5 48 3 44 -8 -4 -10 -18 -13
-47 -11 -39 2 -42 1 -39 -20 4 -31 114 -91 190 -105 15 -3 33 -11 39 -19 6 -8
17 -14 25 -14 7 0 17 -6 21 -13 4 -8 20 -17 35 -21 21 -5 30 -2 37 12 5 10 7
23 3 28 -12 18 -75 47 -116 53 -53 8 -57 27 -7 36 60 10 145 -34 165 -86 9
-23 31 -48 57 -66 23 -15 52 -41 63 -56 18 -24 18 -29 6 -37 -9 -6 -20 -4 -30
5 -9 8 -35 17 -59 21 -55 9 -53 -11 5 -42 28 -15 40 -28 42 -47 5 -39 40 -37
53 3 13 37 42 39 57 5 6 -14 18 -25 26 -25 21 0 66 -58 66 -84 0 -25 79 -106
103 -106 9 0 17 11 20 28 4 26 4 25 6 -5 0 -18 17 -60 37 -94 20 -34 43 -87
51 -118 8 -31 20 -69 28 -86 32 -70 95 -246 95 -267 0 -13 -8 -34 -17 -48 -9
-13 -19 -40 -23 -59 -3 -23 -12 -37 -23 -39 -9 -2 -17 2 -17 8 0 7 -6 26 -14
43 -8 18 -17 41 -21 52 -8 19 -8 19 -13 1 -2 -10 0 -28 6 -40 45 -98 47 -107
27 -125 -30 -25 -65 -78 -65 -97 0 -16 2 -16 20 1 11 10 20 26 20 35 0 11 10
20 24 24 35 9 56 33 56 65 0 29 16 51 36 51 16 0 11 -207 -5 -223 -8 -8 -11 6
-11 51 0 48 -3 62 -15 62 -12 0 -15 -13 -15 -60 0 -33 4 -60 10 -60 15 0 12
-76 -4 -89 -12 -10 -26 -101 -30 -191 -1 -24 -6 -36 -18 -38 -9 -2 -34 -19
-55 -38 -21 -20 -53 -42 -71 -51 -43 -20 -49 -38 -28 -73 16 -27 13 -60 -5
-60 -5 0 -9 -5 -9 -11 0 -6 -15 -29 -34 -52 -18 -23 -37 -52 -40 -64 -4 -12
-16 -25 -27 -28 -13 -4 -19 -15 -19 -35 0 -37 -16 -47 -40 -25 -19 18 -50 14
-50 -5 0 -5 -22 -32 -50 -59 -44 -43 -49 -53 -44 -79 6 -27 2 -33 -27 -51 -41
-25 -49 -26 -49 -6 0 8 -9 24 -20 35 -11 11 -20 27 -20 36 0 13 -7 15 -39 9
-35 -6 -41 -4 -56 19 -11 16 -14 33 -10 43 5 10 7 48 7 85 -1 58 1 69 18 78
13 7 20 21 20 40 0 20 6 31 20 35 22 7 26 20 8 31 -6 4 -17 -1 -25 -12 -12
-16 -15 -17 -23 -4 -6 8 -8 21 -5 28 3 8 5 17 5 20 0 4 24 7 54 7 52 0 85 13
59 22 -24 9 -13 23 17 23 17 0 47 7 67 15 44 18 89 19 96 2 5 -15 73 -11 83 4
3 5 22 9 43 9 47 0 65 18 52 52 -14 37 -35 40 -76 12 -43 -29 -44 -29 -87 -7
-18 9 -41 20 -50 24 -12 6 -26 1 -45 -15 -22 -18 -45 -24 -102 -29 -41 -3 -79
-11 -85 -17 -5 -5 -18 -10 -29 -10 -12 0 -24 -13 -34 -39 -9 -22 -26 -44 -40
-50 -24 -11 -24 -13 -9 -30 9 -9 18 -31 22 -47 5 -25 -1 -36 -39 -75 -36 -38
-45 -55 -50 -96 -5 -47 -4 -50 29 -77 19 -15 43 -44 52 -63 16 -34 18 -35 62
-30 25 3 53 1 62 -4 25 -13 23 -56 -3 -69 -11 -6 -23 -20 -27 -30 -8 -20 -89
-82 -138 -105 -17 -7 -36 -21 -44 -30 -11 -14 -14 -14 -25 2 -20 27 -146 29
-129 2 4 -7 23 -8 49 -5 34 6 44 4 49 -9 10 -27 -2 -35 -47 -29 -32 5 -46 2
-56 -10 -10 -12 -31 -16 -81 -16 -63 0 -80 -7 -80 -34 0 -2 45 -2 100 -1 74 2
105 6 118 18 41 36 91 56 127 50 24 -4 41 -1 53 9 18 15 102 66 184 112 27 15
58 36 70 47 13 11 61 51 108 87 103 80 223 208 276 292 22 34 50 78 63 98 33
52 121 226 121 242 0 12 20 78 47 153 7 20 13 53 13 71 0 18 7 50 15 70 21 50
16 369 -7 466 -29 123 -41 165 -54 197 -8 17 -14 37 -14 44 0 20 -122 261
-152 300 -15 20 -28 41 -28 46 0 5 -21 33 -47 61 -27 28 -53 57 -59 64 -7 7
-31 29 -55 48 -23 19 -61 55 -83 79 -72 77 -261 194 -421 259 -206 84 -529
122 -730 86z m-175 -144 c0 -13 -28 -25 -38 -16 -3 4 0 11 8 16 20 13 30 12
30 0z m-100 -28 c0 -32 -20 -43 -47 -25 l-25 16 24 13 c32 18 48 17 48 -4z
m1035 -23 c0 -9 -13 -15 -35 -17 l-35 -2 24 20 c26 22 46 22 46 -1z m-1057
-49 c-3 -11 -13 -14 -41 -12 -28 3 -37 0 -37 -12 0 -17 -25 -22 -34 -8 -3 5 2
18 10 30 12 17 24 21 60 20 34 -2 44 -6 42 -18z m-58 -80 c0 -15 -26 -23 -41
-14 -9 5 -7 10 7 15 27 11 34 10 34 -1z m1623 -173 c20 -16 37 -37 37 -47 0
-10 4 -20 9 -22 4 -1 12 -13 15 -25 9 -27 -11 -32 -21 -5 -4 9 -24 37 -46 62
-73 84 -71 97 6 37z m-475 -1869 c-2 -15 -11 -24 -25 -26 -25 -4 -31 16 -11
36 20 20 40 14 36 -10z m382 -65 c0 -19 -28 -53 -45 -53 -6 0 -16 5 -22 11 -8
8 -4 18 15 35 32 28 52 31 52 7z"/>
<path d="M712 3519 c2 -6 8 -10 13 -10 5 0 11 4 13 10 2 6 -4 11 -13 11 -9 0
-15 -5 -13 -11z"/>
<path d="M1830 3485 c0 -16 17 -19 44 -9 22 9 10 24 -20 24 -15 0 -24 -6 -24
-15z"/>
<path d="M1660 3456 c0 -2 7 -9 15 -16 12 -10 15 -10 15 4 0 9 -7 16 -15 16
-8 0 -15 -2 -15 -4z"/>
<path d="M2023 3418 c2 -7 10 -13 17 -13 7 0 15 6 18 13 2 7 -5 12 -18 12 -13
0 -20 -5 -17 -12z"/>
<path d="M1400 3384 c0 -17 22 -14 28 4 2 7 -3 12 -12 12 -9 0 -16 -7 -16 -16z"/>
<path d="M1940 3380 c0 -24 47 -47 69 -33 25 16 23 30 -6 37 -15 4 -36 9 -45
12 -13 4 -18 0 -18 -16z"/>
<path d="M1730 3346 c0 -21 -19 -30 -35 -16 -29 24 -94 -10 -95 -49 0 -9 7
-11 22 -8 12 3 41 1 65 -6 35 -9 48 -9 65 2 11 7 32 15 46 17 48 9 52 17 27
48 -22 28 -23 28 -30 7 -8 -27 -31 -27 -38 -1 -6 23 -27 27 -27 6z"/>
<path d="M2110 3312 c0 -5 7 -13 16 -16 10 -4 14 -1 12 6 -5 15 -28 23 -28 10z"/>
<path d="M1915 3263 c-30 -7 -40 -20 -26 -36 17 -22 -8 -37 -51 -31 -30 5 -38
2 -56 -21 -27 -34 -28 -62 -3 -70 11 -3 22 -12 25 -20 3 -8 15 -15 26 -15 17
0 20 6 20 39 0 55 9 75 26 60 8 -6 14 -19 14 -29 0 -27 34 -52 61 -45 37 9
193 -73 197 -103 2 -15 21 -34 56 -55 28 -18 60 -38 71 -45 34 -21 44 -24 60
-18 19 7 20 45 1 52 -39 15 -82 99 -91 179 -4 32 -22 49 -72 67 -18 7 -35 20
-39 30 -3 10 -17 20 -32 23 -15 4 -50 15 -77 26 -50 19 -71 21 -110 12z m69
-72 c7 -11 -22 -23 -35 -15 -5 3 -7 10 -4 15 8 12 32 12 39 0z"/>
<path d="M1335 3220 c-3 -5 0 -10 8 -10 8 0 20 -6 26 -14 9 -11 8 -18 -4 -30
-15 -15 -14 -16 19 -16 39 0 48 18 21 40 -8 7 -15 19 -15 26 0 16 -46 19 -55
4z"/>
<path d="M2300 3186 c0 -17 32 -75 45 -79 47 -19 66 50 20 71 -25 11 -65 16
-65 8z"/>
<path d="M801 3110 c-27 -19 -57 -30 -78 -30 -29 0 -34 -4 -39 -30 -4 -16 -15
-32 -25 -35 -22 -7 -25 -33 -5 -41 8 -3 32 12 56 35 23 22 50 43 61 46 10 4
19 10 19 15 0 5 10 12 23 16 12 4 32 14 45 22 18 11 20 17 10 23 -18 12 -18
12 -67 -21z"/>
<path d="M2430 3131 c0 -11 66 -51 73 -45 3 3 -5 16 -18 30 -22 24 -55 33 -55
15z"/>
<path d="M1237 3075 c-9 -9 -17 -21 -17 -27 0 -6 -10 -8 -25 -4 -18 5 -25 2
-25 -8 0 -8 5 -18 10 -21 6 -3 10 -15 10 -25 0 -17 -3 -18 -24 -9 -14 7 -40 9
-61 5 -35 -7 -37 -9 -32 -39 3 -18 8 -42 12 -54 7 -22 5 -23 -39 -23 -43 0
-46 -2 -36 -19 8 -16 17 -18 52 -14 24 3 50 12 59 19 8 8 23 14 32 14 9 0 17
7 17 15 0 8 5 15 10 15 6 0 10 -4 10 -9 0 -6 -4 -13 -10 -16 -20 -12 -9 -25
15 -19 15 4 25 2 25 -5 0 -5 13 -25 29 -43 38 -43 64 -134 66 -227 1 -76 4
-81 48 -95 24 -8 22 -17 -18 -69 -19 -25 -35 -53 -35 -62 0 -9 -7 -30 -16 -47
-16 -31 -15 -57 5 -133 6 -22 13 -52 16 -67 3 -18 12 -28 23 -28 29 0 42 -21
42 -70 0 -43 13 -70 33 -70 5 0 7 12 5 26 -4 33 27 58 42 34 5 -8 10 -30 10
-47 0 -18 4 -33 9 -33 5 0 19 -17 32 -37 12 -21 40 -61 61 -90 27 -35 39 -61
38 -80 -3 -46 -1 -53 20 -53 10 0 39 -11 64 -25 25 -14 53 -25 62 -25 10 0 26
-7 36 -17 16 -14 23 -14 56 -4 35 12 41 11 77 -13 21 -14 51 -26 67 -26 35 0
76 -20 103 -50 39 -43 112 -62 143 -38 22 19 13 28 -27 28 -51 0 -73 28 -65
81 6 37 5 38 -29 44 -19 4 -44 2 -55 -4 -21 -11 -52 -6 -52 9 0 5 9 30 20 56
26 59 20 76 -22 72 -27 -3 -34 -8 -42 -38 -12 -44 -8 -39 -53 -55 -44 -15 -82
-2 -109 40 -18 28 -21 163 -4 194 5 10 27 26 50 36 35 16 47 17 73 7 29 -11
33 -10 50 13 15 20 27 25 61 25 47 0 86 -22 86 -49 0 -10 9 -30 21 -45 17 -21
24 -24 35 -15 20 17 18 33 -17 94 -18 32 -28 62 -25 72 4 10 24 38 46 62 22
25 40 48 40 52 0 5 -10 17 -22 28 -19 19 -20 22 -6 38 8 10 20 32 27 50 7 18
19 38 27 44 8 6 14 26 14 45 0 40 35 77 65 70 23 -6 75 35 75 59 0 17 -35 21
-45 5 -11 -17 -42 -11 -59 13 l-15 22 -21 -24 c-11 -13 -20 -31 -20 -40 0 -20
-19 -41 -37 -41 -10 0 -10 5 -1 24 11 26 5 56 -11 56 -6 0 -16 -19 -23 -42
-13 -46 -27 -63 -41 -49 -11 11 0 51 14 51 5 0 9 14 9 30 0 17 -4 30 -10 30
-5 0 -10 14 -10 31 0 33 16 31 30 -5 8 -20 9 -19 9 6 1 38 11 58 28 58 11 0
14 -7 11 -25 -7 -33 4 -38 39 -20 15 8 40 17 56 20 15 3 27 12 27 21 0 20 30
30 40 13 5 -7 6 -26 3 -41 -5 -23 -2 -28 15 -28 43 0 74 19 70 43 -2 17 -11
23 -41 27 -30 4 -40 11 -55 40 -13 27 -25 36 -52 41 -41 6 -76 23 -109 53
l-23 21 -15 -22 c-20 -30 -37 -29 -57 2 -16 25 -72 42 -101 31 -14 -5 -13 -11
7 -44 13 -22 31 -50 41 -64 14 -20 15 -31 7 -53 -7 -20 -8 -31 0 -39 12 -12
13 -73 1 -80 -18 -12 -41 7 -61 50 -18 36 -27 44 -49 44 -15 0 -36 7 -47 15
-10 8 -31 15 -45 15 -24 0 -69 45 -69 70 0 10 35 67 64 104 14 17 16 17 31 2
9 -9 23 -16 30 -16 28 0 24 19 -7 44 -31 24 -32 26 -14 39 12 9 17 20 13 31
-9 23 -27 20 -27 -4 0 -19 -25 -29 -32 -12 -1 4 -18 18 -36 30 -35 25 -54 23
-32 -3 24 -28 4 -47 -48 -44 -39 2 -52 -2 -75 -23 -32 -30 -33 -35 -11 -60 13
-13 14 -21 5 -31 -8 -11 -5 -16 14 -25 17 -8 24 -18 22 -34 -2 -19 4 -24 27
-26 28 -4 28 -4 22 -54 -7 -50 -7 -50 18 -44 22 5 30 0 52 -34 15 -22 35 -40
45 -40 27 0 32 -16 14 -44 -19 -28 -13 -46 15 -46 21 0 30 19 30 61 0 33 16
39 25 9 3 -11 10 -20 14 -20 4 0 21 -13 37 -30 22 -22 38 -30 67 -30 36 0 37
-1 37 -34 0 -46 15 -54 29 -15 9 26 14 29 33 24 41 -13 39 -21 -20 -82 -50
-52 -61 -59 -78 -50 -28 15 -28 15 -15 30 8 11 7 22 -5 46 -23 46 -36 39 -29
-16 13 -94 34 -143 62 -143 12 0 14 7 10 29 l-6 29 29 -15 c28 -14 43 -53 20
-53 -5 0 -10 -11 -10 -24 0 -28 -24 -40 -51 -26 -27 15 -41 3 -34 -30 8 -37
-7 -45 -47 -26 -17 9 -47 16 -67 16 -34 -1 -35 -2 -17 -15 23 -17 24 -17 -34
-38 -53 -20 -101 -64 -141 -129 -16 -27 -34 -48 -41 -48 -7 0 -26 11 -43 24
-26 21 -28 26 -16 40 8 9 10 20 6 24 -4 4 -10 1 -12 -5 -7 -21 -23 -15 -33 12
-5 14 -14 25 -19 25 -5 0 -12 11 -15 25 -4 14 -17 31 -30 37 -35 15 -39 45
-10 64 26 18 32 44 10 44 -7 0 -26 -10 -41 -22 -21 -16 -31 -19 -44 -11 -24
15 -25 40 -1 46 36 9 24 30 -15 24 l-35 -6 0 53 c0 61 9 76 27 44 9 -18 12
-19 13 -6 0 9 -4 20 -10 23 -22 13 -5 129 20 145 5 3 11 55 14 115 2 61 1 95
-2 76 -5 -23 -15 -37 -30 -42 -28 -11 -37 7 -22 45 14 37 13 42 -10 64 -20 18
-20 21 -4 48 16 29 16 29 -25 74 -22 25 -41 50 -41 56 0 5 -14 24 -31 42 -30
31 -30 31 -12 56 23 31 63 43 75 23 5 -9 16 -13 28 -10 21 6 28 -11 9 -22 -12
-8 18 -45 37 -45 7 0 20 -7 28 -16 15 -14 17 -14 32 0 19 20 68 21 84 1 13
-16 6 -35 -14 -35 -13 0 -56 -53 -56 -70 0 -15 16 -12 57 10 21 11 44 20 51
20 9 0 11 7 7 20 -5 16 -2 20 14 20 28 0 27 16 -1 31 -13 7 -31 22 -41 35 -24
31 -69 52 -126 60 -41 5 -48 10 -64 43 -30 63 -50 82 -93 88 -30 4 -45 1 -57
-12z m6 -118 c2 -7 -6 -18 -19 -24 -20 -9 -24 -9 -24 6 0 31 33 44 43 18z
m480 -163 c14 -5 17 -15 15 -43 -4 -49 -33 -55 -43 -9 -4 18 -12 36 -18 39
-13 9 2 32 16 25 7 -4 20 -9 30 -12z m521 -140 c20 -8 21 -33 1 -40 -18 -7
-45 12 -45 32 0 15 18 18 44 8z m-114 -64 c-12 -12 -24 -19 -27 -16 -3 3 2 12
11 21 9 9 16 22 16 28 0 8 3 8 11 0 8 -8 5 -17 -11 -33z m-10 -99 c0 -28 -44
-73 -64 -65 -14 5 -11 12 15 45 34 43 49 49 49 20z"/>
<path d="M1617 3083 c-15 -14 -6 -33 23 -48 37 -19 60 -19 60 0 0 8 -6 15 -13
15 -8 0 -22 9 -32 20 -19 21 -28 24 -38 13z"/>
<path d="M956 3055 c-15 -14 -44 -34 -64 -45 -69 -37 -105 -80 -66 -80 16 0
74 41 129 91 17 15 41 29 55 31 31 4 29 22 -3 26 -14 2 -34 -7 -51 -23z"/>
<path d="M1490 3070 c0 -5 7 -10 15 -10 8 0 15 5 15 10 0 6 -7 10 -15 10 -8 0
-15 -4 -15 -10z"/>
<path d="M1783 3044 c-3 -8 1 -22 9 -30 13 -13 17 -12 32 5 10 11 15 25 11 30
-10 17 -45 13 -52 -5z"/>
<path d="M1566 3021 c-24 -27 -17 -56 14 -56 19 0 26 -6 28 -23 2 -13 11 -26
20 -28 9 -3 25 -10 36 -16 13 -7 22 -6 32 4 23 22 5 58 -36 74 -25 10 -40 24
-44 40 -8 29 -27 31 -50 5z"/>
<path d="M2394 3005 c-8 -21 14 -45 41 -45 13 0 25 -3 27 -7 9 -22 130 -114
143 -109 8 3 16 -3 20 -15 8 -23 21 -25 29 -3 8 21 -1 34 -22 34 -10 0 -23 9
-30 20 -7 11 -19 20 -27 20 -8 0 -30 14 -48 30 -19 17 -39 30 -44 30 -5 0 -19
14 -31 30 -24 33 -49 39 -58 15z"/>
<path d="M1848 2993 c-35 -5 -37 -35 -4 -56 20 -13 29 -14 55 -4 26 10 33 8
53 -9 13 -12 31 -24 42 -28 17 -6 18 -8 2 -24 -24 -27 -20 -39 17 -45 17 -4
47 -9 65 -13 26 -5 32 -3 32 10 0 9 -11 28 -25 42 l-25 25 26 9 c35 14 21 30
-25 30 -23 0 -44 6 -52 16 -19 23 -85 54 -111 53 -13 -1 -35 -4 -50 -6z"/>
<path d="M1732 2978 c5 -15 28 -18 29 -3 0 6 -7 12 -17 13 -10 3 -15 -1 -12
-10z"/>
<path d="M588 2958 c-19 -19 -24 -48 -10 -48 5 0 16 8 25 18 31 34 15 63 -15
30z"/>
<path d="M2690 2960 c6 -11 15 -20 20 -20 16 0 11 27 -6 34 -24 9 -26 8 -14
-14z"/>
<path d="M690 2933 c0 -26 1 -26 14 -8 14 20 12 35 -5 35 -5 0 -9 -12 -9 -27z"/>
<path d="M750 2915 c-7 -8 -18 -15 -24 -15 -6 0 -19 -11 -28 -25 -17 -23 -17
-24 10 -45 15 -12 29 -35 32 -52 3 -17 11 -33 18 -36 18 -6 16 57 -3 64 -9 4
-15 19 -15 36 0 22 7 33 30 46 16 9 30 23 30 30 0 17 -35 15 -50 -3z"/>
<path d="M1307 2923 c-13 -12 -7 -23 13 -23 11 0 20 7 20 15 0 15 -21 21 -33
8z"/>
<path d="M2750 2915 c0 -8 7 -15 15 -15 9 0 12 6 9 15 -4 8 -10 15 -15 15 -5
0 -9 -7 -9 -15z"/>
<path d="M982 2900 c-7 -11 -21 -20 -32 -20 -12 0 -24 -8 -28 -17 -17 -41 -48
-83 -60 -83 -31 0 -21 -49 10 -50 7 0 31 39 44 70 3 8 20 24 37 35 37 24 77
85 55 85 -7 0 -19 -9 -26 -20z"/>
<path d="M1342 2868 c-11 -14 -5 -68 8 -68 25 0 40 15 40 40 0 16 -7 30 -16
34 -21 8 -20 8 -32 -6z"/>
<path d="M2370 2859 c0 -15 27 -66 50 -93 66 -76 126 -136 137 -136 15 0 17
-16 3 -25 -19 -12 -11 -44 13 -47 15 -2 29 -18 46 -51 19 -38 26 -45 37 -36
21 17 17 33 -16 70 -16 19 -30 39 -30 44 0 30 14 55 31 55 14 0 19 7 19 25 0
30 -16 33 -25 5 -9 -27 -50 -37 -70 -16 -9 9 -21 16 -26 16 -6 0 -15 13 -22
28 -15 36 -98 132 -114 132 -7 0 -17 8 -22 18 -6 9 -11 14 -11 11z"/>
<path d="M623 2795 c-18 -19 -33 -38 -33 -42 0 -4 -10 -17 -21 -29 -12 -13
-19 -30 -16 -38 9 -23 26 -20 37 7 5 12 25 39 44 60 32 34 48 77 29 77 -5 0
-23 -16 -40 -35z"/>
<path d="M2724 2805 c-4 -18 -13 -25 -30 -25 -19 0 -24 -5 -24 -23 0 -25 32
-62 43 -50 4 3 7 16 7 27 0 12 7 30 15 40 17 22 20 56 5 56 -5 0 -12 -11 -16
-25z"/>
<path d="M1432 2808 c-19 -19 -14 -30 11 -26 12 2 22 9 22 17 0 19 -18 24 -33
9z"/>
<path d="M1071 2741 c-6 -11 -20 -23 -31 -26 -11 -3 -20 -15 -20 -25 0 -11 -6
-23 -14 -27 -24 -13 -79 -94 -121 -175 -21 -43 -43 -78 -47 -78 -4 0 -8 -11
-8 -24 0 -13 -7 -29 -14 -36 -8 -6 -22 -34 -31 -61 -15 -45 -45 -69 -45 -35 0
19 -27 39 -44 33 -22 -9 -8 -56 20 -63 28 -7 33 -47 9 -74 -16 -18 -10 -53 8
-47 6 2 16 18 22 36 6 18 19 39 29 47 15 10 17 21 13 49 -4 25 -2 35 8 35 13
0 55 75 55 99 0 16 29 71 46 89 8 7 14 20 14 27 0 8 6 18 13 22 7 4 20 24 27
43 8 19 29 50 47 68 18 18 33 39 33 46 0 8 7 16 15 20 8 3 15 12 15 21 0 8 4
15 9 15 13 0 22 28 11 35 -5 3 -14 -3 -19 -14z"/>
<path d="M774 2726 c-11 -29 1 -61 23 -64 11 -2 32 -19 45 -38 24 -35 42 -42
54 -22 5 7 -7 24 -28 43 -20 17 -38 41 -40 54 -4 28 -46 49 -54 27z"/>
<path d="M1434 2727 c-8 -21 3 -37 26 -37 10 0 22 -4 25 -10 3 -5 15 -10 25
-10 11 0 29 -10 40 -22 l21 -23 -3 29 c-3 26 1 30 30 38 54 14 36 23 -45 22
-57 -1 -83 3 -95 14 -16 13 -18 13 -24 -1z"/>
<path d="M1460 2650 c-9 -17 -8 -20 10 -20 13 0 20 7 20 20 0 11 -4 20 -10 20
-5 0 -14 -9 -20 -20z"/>
<path d="M2782 2654 c2 -11 11 -20 22 -22 13 -3 17 1 14 14 -2 11 -11 20 -22
22 -13 3 -17 -1 -14 -14z"/>
<path d="M737 2640 c-3 -12 -14 -20 -26 -20 -15 0 -21 -6 -21 -24 0 -13 -7
-29 -15 -36 -8 -7 -15 -18 -15 -26 0 -7 -9 -18 -20 -24 -13 -7 -20 -21 -20
-40 0 -46 16 -36 50 33 18 34 38 69 46 77 7 8 22 25 34 38 23 26 26 42 6 42
-7 0 -16 -9 -19 -20z"/>
<path d="M1644 2593 c3 -21 8 -59 12 -85 5 -37 10 -48 24 -48 33 0 50 -12 50
-34 0 -23 47 -76 68 -76 6 0 17 -12 24 -27 8 -17 25 -32 45 -38 18 -5 36 -17
39 -27 6 -20 33 -25 35 -5 8 102 -2 127 -39 94 -21 -18 -56 -7 -72 22 -6 12
-17 21 -24 21 -18 0 -56 43 -56 63 0 10 -8 17 -19 17 -11 0 -22 8 -26 19 -3
10 -14 26 -25 36 -14 13 -20 31 -20 62 0 24 -5 43 -11 43 -7 0 -9 -14 -5 -37z"/>
<path d="M2840 2605 c0 -8 5 -15 10 -15 6 0 10 7 10 15 0 8 -4 15 -10 15 -5 0
-10 -7 -10 -15z"/>
<path d="M1181 2546 c-12 -26 -21 -51 -21 -56 0 -11 -26 -20 -57 -20 -18 0
-24 -5 -21 -17 4 -23 117 -68 132 -53 8 8 4 12 -12 16 -30 8 -31 72 -2 99 22
20 25 41 10 65 -7 11 -14 3 -29 -34z"/>
<path d="M2870 2543 c0 -16 7 -37 15 -47 8 -11 15 -28 15 -37 0 -9 13 -28 29
-42 16 -13 31 -32 32 -42 6 -29 29 -30 29 -1 0 15 -8 30 -20 36 -15 8 -20 21
-20 55 0 41 -2 45 -24 45 -19 0 -26 7 -31 30 -8 38 -25 39 -25 3z"/>
<path d="M2480 2524 c0 -9 7 -14 17 -12 25 5 28 28 4 28 -12 0 -21 -6 -21 -16z"/>
<path d="M997 2524 c-13 -13 14 -44 38 -44 30 0 32 11 7 33 -19 18 -34 21 -45
11z"/>
<path d="M530 2476 c0 -15 7 -29 15 -32 10 -4 15 -20 15 -44 0 -48 13 -57 40
-28 28 31 23 62 -12 66 -20 2 -28 9 -30 29 -4 36 -28 43 -28 9z"/>
<path d="M2427 2414 c-9 -9 3 -55 18 -74 7 -8 16 -31 20 -50 9 -44 23 -70 37
-70 16 0 3 78 -16 99 -9 10 -16 29 -16 44 0 14 -7 33 -16 41 -18 18 -18 18
-27 10z"/>
<path d="M2565 2409 c-10 -15 1 -23 20 -15 9 3 13 10 10 16 -8 13 -22 13 -30
-1z"/>
<path d="M2703 2399 c4 -13 7 -30 7 -36 0 -7 9 -13 20 -13 29 0 25 34 -6 55
-27 17 -27 17 -21 -6z"/>
<path d="M2859 2397 c-9 -7 -24 -27 -33 -45 -15 -28 -21 -33 -42 -28 -25 7
-27 4 -38 -45 -5 -23 -2 -28 19 -33 16 -4 25 -13 25 -27 0 -29 51 -130 64
-126 18 6 19 46 2 53 -9 3 -16 12 -16 19 0 8 -7 20 -15 29 -8 8 -19 26 -25 41
-11 28 -4 75 11 75 14 0 54 43 67 73 12 29 7 34 -19 14z"/>
<path d="M1091 2358 c-32 -77 -43 -107 -63 -168 -11 -36 -28 -71 -36 -78 -11
-8 -15 -25 -13 -51 1 -22 -5 -53 -13 -70 -9 -16 -16 -41 -16 -54 0 -12 -5 -28
-12 -35 -18 -18 -3 -25 21 -10 14 9 21 23 21 45 0 17 4 34 9 37 5 3 12 18 15
33 4 16 13 42 20 58 8 17 22 57 31 90 9 33 23 73 31 88 8 16 14 42 14 58 0 17
6 32 15 35 18 7 20 54 2 54 -7 0 -19 -15 -26 -32z"/>
<path d="M630 2355 c0 -14 21 -45 31 -45 18 0 5 45 -13 48 -10 2 -18 1 -18 -3z"/>
<path d="M523 2328 c-15 -19 -26 -118 -13 -118 5 0 10 15 10 34 0 21 6 36 15
40 8 3 15 17 15 31 0 27 -12 32 -27 13z"/>
<path d="M930 2311 c0 -12 5 -21 10 -21 6 0 10 6 10 14 0 8 -4 18 -10 21 -5 3
-10 -3 -10 -14z"/>
<path d="M2660 2232 c0 -19 18 -42 32 -42 12 0 9 35 -4 48 -17 17 -28 15 -28
-6z"/>
<path d="M390 2220 c0 -8 -3 -25 -6 -37 -5 -17 -2 -23 10 -23 18 0 22 36 6 60
-9 13 -10 13 -10 0z"/>
<path d="M1946 2215 c-3 -8 -12 -15 -21 -15 -9 0 -15 -9 -15 -25 0 -14 5 -25
10 -25 6 0 10 4 10 8 0 5 6 17 14 27 12 16 16 17 30 6 13 -11 17 -11 22 3 7
20 6 21 -22 30 -15 4 -24 2 -28 -9z"/>
<path d="M822 2168 c5 -13 53 -29 62 -20 17 17 3 32 -30 32 -23 0 -34 -4 -32
-12z"/>
<path d="M2610 2165 c0 -10 -10 -15 -26 -15 -22 0 -74 -39 -74 -55 0 -3 13
-11 29 -20 28 -14 29 -14 39 13 11 30 47 72 62 72 6 0 10 5 10 10 0 6 -9 10
-20 10 -11 0 -20 -7 -20 -15z"/>
<path d="M438 2145 c-3 -4 -4 -24 -1 -46 3 -23 1 -45 -6 -53 -17 -20 -27 -126
-13 -126 6 0 14 17 17 38 12 76 15 82 36 82 25 0 35 25 19 45 -7 9 -13 25 -14
38 -1 21 -25 35 -38 22z"/>
<path d="M1617 2144 c-10 -10 -8 -76 2 -93 6 -9 11 2 15 33 4 25 7 49 7 53 1
10 -16 15 -24 7z"/>
<path d="M900 2131 c0 -5 7 -12 16 -15 22 -9 24 -8 24 9 0 8 -9 15 -20 15 -11
0 -20 -4 -20 -9z"/>
<path d="M1932 2108 c6 -18 28 -21 28 -4 0 9 -7 16 -16 16 -9 0 -14 -5 -12
-12z"/>
<path d="M2436 2085 c-17 -13 -48 -27 -70 -30 -65 -10 -96 -27 -96 -52 0 -27
18 -40 26 -19 3 9 15 16 27 16 11 0 29 8 39 17 11 10 31 18 46 19 15 1 30 3
34 3 4 1 15 12 24 27 24 36 5 48 -30 19z"/>
<path d="M575 2080 c-9 -14 14 -52 28 -47 7 2 13 16 15 30 3 21 -1 27 -17 27
-11 0 -23 -4 -26 -10z"/>
<path d="M687 2073 c-10 -10 -8 -93 2 -93 11 0 21 35 21 73 0 26 -9 34 -23 20z"/>
<path d="M1077 2054 c-8 -8 1 -24 14 -24 5 0 9 7 9 15 0 15 -12 20 -23 9z"/>
<path d="M1140 2032 c0 -5 16 -19 35 -31 31 -18 36 -19 42 -5 3 8 2 19 -3 24
-15 15 -74 24 -74 12z"/>
<path d="M510 2006 c0 -20 5 -26 21 -26 15 0 20 5 17 22 -5 34 -38 37 -38 4z"/>
<path d="M2898 1984 c-16 -9 -29 -26 -33 -44 -4 -16 -14 -34 -23 -40 -28 -16
2 -11 36 6 21 10 32 23 32 36 0 12 7 30 17 40 19 21 9 22 -29 2z"/>
<path d="M1260 1981 c0 -6 5 -13 10 -16 6 -3 10 -16 10 -28 0 -12 4 -28 9 -36
7 -11 11 -4 17 24 5 31 3 41 -11 52 -22 15 -35 17 -35 4z"/>
<path d="M2602 1910 c1 -50 4 -60 17 -58 10 2 15 11 12 23 -2 11 -4 35 -5 54
-1 19 -7 36 -13 38 -8 3 -12 -14 -11 -57z"/>
<path d="M570 1945 c0 -9 5 -15 11 -13 6 2 11 8 11 13 0 5 -5 11 -11 13 -6 2
-11 -4 -11 -13z"/>
<path d="M1654 1936 c-18 -14 -18 -15 8 -21 35 -9 53 2 37 21 -14 18 -20 18
-45 0z"/>
<path d="M623 1924 c-3 -8 -3 -41 1 -72 5 -41 2 -68 -11 -104 -12 -35 -14 -54
-7 -65 19 -31 29 -17 35 52 3 39 14 89 23 113 19 51 12 92 -15 92 -11 0 -22
-7 -26 -16z"/>
<path d="M1420 1892 c0 -9 9 -23 20 -30 11 -7 20 -22 20 -35 0 -12 12 -33 25
-46 25 -23 33 -16 16 17 -5 9 -18 38 -31 65 -21 46 -50 64 -50 29z"/>
<path d="M2293 1862 c10 -10 17 -24 17 -31 0 -7 4 -10 10 -6 14 8 -10 55 -28
55 -13 0 -13 -3 1 -18z"/>
<path d="M2734 1849 l-29 -32 39 6 c40 6 79 33 70 48 -11 19 -52 7 -80 -22z"/>
<path d="M720 1856 c0 -8 5 -18 10 -21 6 -3 10 1 10 9 0 8 -4 18 -10 21 -5 3
-10 -1 -10 -9z"/>
<path d="M1264 1856 c-3 -9 -3 -27 0 -40 4 -15 -1 -36 -11 -54 -15 -26 -15
-34 -4 -58 11 -26 14 -27 23 -11 5 10 7 31 3 46 -5 23 -1 32 15 44 18 12 20
20 13 48 -10 36 -30 49 -39 25z"/>
<path d="M930 1824 c-6 -14 -10 -31 -10 -38 0 -6 -5 -17 -11 -23 -8 -8 -7 -19
3 -40 11 -22 20 -27 41 -25 15 1 40 -4 56 -13 17 -8 40 -15 53 -15 13 0 32 -6
43 -14 11 -7 35 -17 53 -21 25 -5 32 -3 32 9 0 11 -9 16 -28 16 -17 0 -37 9
-48 21 -15 17 -27 20 -62 16 -39 -4 -48 -1 -78 28 -37 36 -42 59 -19 91 14 21
11 34 -7 34 -5 0 -13 -12 -18 -26z"/>
<path d="M770 1812 c0 -12 78 -44 93 -39 7 3 5 6 -5 6 -10 1 -22 10 -28 21
-10 19 -60 29 -60 12z"/>
<path d="M2128 1808 c-19 -8 -28 -19 -28 -35 0 -27 9 -29 36 -8 10 8 33 14 49
14 17 0 39 -6 49 -14 11 -8 37 -15 59 -15 34 0 38 3 35 22 -2 18 -12 25 -43
31 -74 14 -130 16 -157 5z"/>
<path d="M2634 1785 c-9 -14 -26 -25 -38 -25 -11 0 -28 -5 -36 -10 -11 -7 -1
-10 36 -10 52 0 74 12 74 41 0 29 -18 31 -36 4z"/>
<path d="M2368 1775 c-6 -14 -8 -28 -5 -31 8 -9 96 16 104 28 8 15 -17 28 -55
28 -25 0 -35 -6 -44 -25z"/>
<path d="M2332 1678 c-18 -18 -15 -40 6 -36 9 2 18 13 20 26 4 24 -7 29 -26
10z"/>
<path d="M500 1664 c0 -18 23 -43 50 -54 17 -7 38 -26 46 -41 8 -17 26 -31 42
-35 15 -4 34 -12 42 -19 21 -17 70 -28 70 -15 0 5 -7 10 -15 10 -9 0 -18 7
-22 15 -3 9 -18 22 -33 30 -15 8 -40 28 -56 44 -16 17 -41 33 -57 37 -16 3
-31 12 -34 20 -5 13 -33 20 -33 8z"/>
<path d="M896 1663 c-10 -10 -7 -181 3 -188 15 -9 29 27 21 55 -4 14 -5 48 -2
76 4 47 -6 73 -22 57z"/>
<path d="M1216 1641 c-17 -19 -17 -20 3 -30 26 -14 44 -14 59 1 9 9 8 16 -5
30 -21 23 -36 23 -57 -1z"/>
<path d="M1323 1607 c4 -13 105 -33 115 -23 13 14 -20 30 -68 32 -36 2 -50 -1
-47 -9z"/>
<path d="M1510 1581 c0 -15 6 -21 21 -21 14 0 19 5 17 17 -5 26 -38 29 -38 4z"/>
<path d="M1580 1570 c0 -6 11 -16 25 -22 20 -9 28 -9 38 1 9 9 9 14 -3 21 -20
13 -60 13 -60 0z"/>
<path d="M1227 1508 c-6 -47 -3 -58 19 -58 11 0 14 11 11 47 -4 60 -23 67 -30
11z"/>
<path d="M2747 1522 c-29 -31 -20 -45 13 -22 17 12 28 26 25 31 -9 14 -20 11
-38 -9z"/>
<path d="M2810 1520 c0 -24 25 -60 42 -60 26 0 22 23 -7 48 -28 24 -35 27 -35
12z"/>
<path d="M594 1485 c-9 -23 3 -45 26 -45 23 0 27 29 8 48 -16 16 -27 15 -34
-3z"/>
<path d="M1595 1453 c3 -16 9 -43 12 -60 9 -54 23 -37 23 27 0 54 -2 60 -21
60 -18 0 -20 -4 -14 -27z"/>
<path d="M785 1460 c-16 -25 32 -41 64 -21 11 7 10 11 -7 20 -26 14 -49 14
-57 1z"/>
<path d="M1973 1431 c4 -17 2 -67 -3 -112 -7 -58 -6 -86 1 -96 22 -26 28 0 26
117 -2 94 -5 120 -16 120 -10 0 -12 -8 -8 -29z"/>
<path d="M2636 1453 c-11 -11 -6 -23 9 -23 8 0 15 4 15 9 0 13 -16 22 -24 14z"/>
<path d="M887 1424 c-3 -3 -2 -16 2 -28 14 -38 4 -189 -14 -202 -22 -16 -19
-24 10 -24 30 0 34 -26 8 -46 -17 -13 -17 -14 4 -20 11 -3 23 -14 26 -25 3
-10 10 -19 16 -19 17 0 13 30 -4 36 -18 7 -20 34 -2 34 7 0 18 -5 24 -11 12
-12 33 -4 33 12 0 5 -6 9 -13 9 -29 0 -59 47 -56 87 1 21 -1 62 -5 91 -7 44
-5 57 10 73 16 17 16 22 4 29 -17 11 -34 13 -43 4z"/>
<path d="M1226 1404 c-10 -25 -7 -34 9 -34 8 0 15 9 15 19 0 26 -16 35 -24 15z"/>
<path d="M2725 1400 c-3 -5 1 -13 10 -16 22 -9 29 1 11 15 -10 8 -16 9 -21 1z"/>
<path d="M950 1385 c0 -8 8 -15 19 -15 10 0 35 -7 54 -15 40 -16 81 -20 73 -6
-3 4 -19 11 -36 15 -17 3 -38 13 -46 21 -20 20 -64 20 -64 0z"/>
<path d="M2680 1344 c0 -9 5 -14 12 -12 18 6 21 28 4 28 -9 0 -16 -7 -16 -16z"/>
<path d="M1116 1331 c-8 -12 0 -17 42 -26 29 -6 33 -5 30 12 -4 20 -61 32 -72
14z"/>
<path d="M1222 1328 c-16 -16 -15 -33 3 -48 24 -20 47 4 33 36 -13 27 -19 29
-36 12z"/>
<path d="M2630 1295 c0 -8 7 -15 15 -15 8 0 15 7 15 15 0 8 -7 15 -15 15 -8 0
-15 -7 -15 -15z"/>
<path d="M1316 1292 c-7 -7 14 -43 22 -39 4 3 31 1 60 -2 39 -6 52 -4 52 5 0
8 -8 17 -17 22 -21 11 -110 22 -117 14z"/>
<path d="M1594 1279 c-14 -15 -16 -24 -8 -37 27 -41 63 -17 50 33 -8 30 -17
31 -42 4z"/>
<path d="M1685 1240 c3 -5 42 -10 85 -10 43 0 82 5 85 10 4 6 -27 10 -85 10
-58 0 -89 -4 -85 -10z"/>
<path d="M1226 1224 c-12 -30 -6 -53 15 -59 28 -9 45 8 24 25 -8 7 -15 18 -15
26 0 20 -17 26 -24 8z"/>
<path d="M1976 1170 c-10 -26 -2 -210 9 -208 12 3 16 186 4 208 -7 13 -8 13
-13 0z"/>
<path d="M1602 1105 c2 -14 8 -26 13 -26 6 0 11 12 13 26 2 18 -1 25 -13 25
-12 0 -15 -7 -13 -25z"/>
<path d="M1237 1084 c-13 -14 -7 -39 13 -52 17 -10 21 -10 26 2 13 34 -17 72
-39 50z"/>
<path d="M1143 1074 c-20 -9 -2 -34 24 -34 18 0 24 5 21 17 -3 18 -24 26 -45
17z"/>
<path d="M2184 1055 c-4 -9 -2 -21 4 -27 15 -15 54 1 50 20 -4 23 -46 28 -54
7z"/>
<path d="M1370 1030 c-20 -13 -4 -26 43 -34 42 -8 49 5 15 28 -26 18 -37 19
-58 6z"/>
<path d="M1594 1019 c-18 -20 -18 -21 0 -34 33 -24 56 -2 40 39 -8 21 -17 20
-40 -5z"/>
<path d="M1675 1000 c-3 -5 0 -13 8 -15 24 -10 217 -1 220 10 3 14 -219 19
-228 5z"/>
<path d="M2775 1001 c-7 -12 12 -24 25 -16 11 7 4 25 -10 25 -5 0 -11 -4 -15
-9z"/>
<path d="M1460 835 c-7 -9 -10 -18 -7 -22 10 -9 188 -10 194 0 9 14 -19 39
-31 27 -13 -13 -113 -13 -121 0 -9 14 -21 12 -35 -5z"/>
<path d="M1910 825 c-21 -11 -22 -15 -9 -20 32 -12 94 -1 97 18 3 13 -3 17
-30 17 -18 -1 -44 -7 -58 -15z"/>
<path d="M1676 811 c5 -6 50 -6 109 -2 l100 8 -109 2 c-67 0 -106 -3 -100 -8z"/>
<path d="M1017 803 c-12 -11 -8 -43 6 -43 22 0 40 18 34 34 -6 16 -28 21 -40
9z"/>
<path d="M1537 773 c-56 -3 -77 -7 -74 -16 2 -7 10 -13 18 -14 113 -15 110
-14 104 -34 -7 -22 10 -26 19 -4 4 11 21 15 63 15 32 1 69 7 83 15 29 16 21
20 -50 29 -25 3 -54 7 -65 9 -11 2 -55 2 -98 0z"/>
<path d="M2485 760 c-3 -5 3 -10 15 -10 12 0 18 5 15 10 -3 6 -10 10 -15 10
-5 0 -12 -4 -15 -10z"/>
<path d="M960 730 c0 -11 5 -20 10 -20 6 0 10 9 10 20 0 11 -4 20 -10 20 -5 0
-10 -9 -10 -20z"/>
<path d="M2215 719 c-11 -17 -2 -18 25 -4 24 14 24 14 3 15 -12 0 -25 -5 -28
-11z"/>
<path d="M2393 715 c-3 -9 -3 -18 0 -21 9 -9 27 6 27 22 0 19 -19 18 -27 -1z"/>
<path d="M672 713 c-67 -5 -75 -22 -32 -63 23 -22 30 -35 25 -48 -5 -9 -11
-39 -16 -67 -4 -27 -12 -68 -18 -90 -6 -22 -11 -56 -11 -75 0 -19 -10 -65 -22
-102 -18 -55 -19 -70 -8 -82 27 -34 59 -9 79 64 14 49 38 98 57 118 20 20 44
14 44 -11 0 -41 38 -131 64 -154 36 -31 86 -39 125 -19 44 23 41 46 -7 46 -55
0 -81 28 -109 112 -29 89 -29 94 3 123 27 25 78 34 89 15 11 -17 41 -11 63 13
20 21 21 25 6 45 -15 22 -77 32 -88 13 -3 -4 -18 -11 -34 -14 -37 -7 -127 -89
-148 -133 -10 -21 -24 -34 -35 -34 -23 0 -24 19 -5 80 33 107 62 250 52 260
-5 5 -12 9 -15 8 -4 -1 -30 -3 -59 -5z"/>
<path d="M1806 698 c-9 -12 -16 -28 -16 -34 0 -6 -9 -33 -21 -60 -11 -27 -27
-65 -35 -84 -8 -19 -19 -43 -24 -52 -6 -10 -10 -23 -10 -29 0 -6 -6 -25 -14
-42 -7 -18 -21 -53 -31 -79 -19 -54 -32 -68 -41 -41 -11 35 -32 89 -78 198
-25 61 -46 115 -46 122 0 6 -8 26 -17 45 -9 18 -19 40 -23 48 -4 8 -20 15 -36
15 -25 0 -29 -3 -26 -25 4 -23 12 -42 58 -132 8 -14 14 -33 14 -41 0 -9 6 -28
14 -44 21 -41 46 -100 46 -109 0 -4 12 -32 27 -63 14 -31 29 -69 32 -85 7 -33
35 -47 69 -35 14 5 22 17 22 32 0 13 4 27 9 33 5 5 21 38 36 74 14 36 33 79
41 97 8 17 14 34 14 38 0 3 11 30 24 58 84 187 89 209 49 215 -13 2 -27 -5
-37 -20z"/>
<path d="M236 682 c-85 -46 -124 -144 -73 -188 41 -37 71 -51 162 -74 50 -13
100 -30 113 -38 32 -21 29 -64 -8 -106 -80 -91 -260 -58 -287 53 -10 39 -32
57 -58 47 -13 -5 -16 -13 -11 -34 4 -15 12 -54 17 -87 6 -33 17 -66 24 -74 12
-12 16 -11 24 12 11 27 25 35 36 18 13 -22 72 -41 125 -41 125 0 230 85 230
186 0 36 -6 49 -37 79 -20 20 -46 35 -59 35 -13 0 -41 6 -61 14 -21 7 -58 20
-82 27 -52 16 -76 46 -62 81 11 31 26 42 79 63 41 17 44 17 98 -5 43 -18 60
-31 77 -62 16 -27 28 -38 42 -36 21 3 21 3 7 88 -7 45 -7 45 -50 45 -23 1 -47
6 -54 13 -7 7 -38 12 -77 11 -51 0 -77 -7 -115 -27z"/>
<path d="M2883 694 c-3 -8 -3 -34 0 -57 8 -54 -3 -71 -45 -72 -28 0 -33 -3
-33 -25 0 -22 5 -26 40 -30 l40 -5 -3 -115 c-1 -63 -5 -138 -8 -166 -6 -50 -5
-52 21 -58 16 -4 32 -3 39 4 7 7 9 65 7 170 l-3 159 26 7 c13 3 29 3 34 0 14
-8 34 20 30 41 -3 14 -13 18 -43 18 l-40 0 -1 60 c0 33 -1 66 -2 73 -3 17 -52
15 -59 -4z"/>
<path d="M2320 680 c0 -5 7 -10 15 -10 8 0 15 5 15 10 0 6 -7 10 -15 10 -8 0
-15 -4 -15 -10z"/>
<path d="M3802 668 c7 -19 38 -22 38 -4 0 10 -9 16 -21 16 -12 0 -19 -5 -17
-12z"/>
<path d="M2041 569 c-82 -33 -132 -104 -134 -193 -3 -85 23 -134 93 -181 52
-35 58 -37 121 -32 53 3 74 10 103 32 47 36 78 79 70 99 -10 26 -31 19 -80
-26 -43 -39 -50 -42 -103 -43 -48 0 -64 5 -95 28 -37 29 -61 70 -50 88 3 5 79
9 169 9 106 0 166 4 170 11 13 20 -6 97 -33 132 -52 68 -161 104 -231 76z
m139 -71 c38 -27 75 -72 67 -85 -3 -4 -65 -8 -138 -8 -148 0 -161 7 -117 57
53 60 131 74 188 36z"/>
<path d="M2508 568 c-44 -12 -100 -64 -128 -118 -49 -96 -3 -217 104 -272 61
-31 157 -22 216 21 51 37 74 66 66 86 -9 24 -54 18 -79 -11 -35 -41 -74 -57
-124 -50 -59 8 -78 20 -113 68 -40 55 -40 101 0 156 31 43 83 72 128 72 28 0
112 -45 112 -61 0 -13 47 -30 65 -23 26 10 17 36 -29 79 -60 58 -132 76 -218
53z"/>
<path d="M3193 564 c-54 -20 -108 -82 -127 -146 -13 -44 -13 -56 1 -101 8 -28
22 -61 31 -75 47 -72 183 -105 263 -62 47 24 60 37 89 92 29 53 27 150 -3 202
-49 86 -160 125 -254 90z m130 -59 c119 -49 114 -243 -6 -276 -78 -21 -144 6
-177 71 -37 72 -17 146 50 191 48 33 81 36 133 14z"/>
<path d="M3639 557 l-34 -23 -17 21 c-13 15 -21 17 -33 10 -13 -8 -16 -40 -18
-198 -3 -176 -2 -189 16 -198 42 -23 47 -8 47 136 0 153 8 176 65 195 42 14
58 33 50 60 -8 26 -34 25 -76 -3z"/>
<path d="M1130 550 c-8 -5 -27 -10 -41 -10 -14 0 -34 -6 -44 -14 -18 -13 -18
-14 2 -24 33 -18 34 -36 11 -148 -17 -84 -19 -109 -9 -127 15 -28 65 -57 97
-57 29 0 104 36 104 50 0 6 10 10 21 10 19 0 21 -4 14 -37 -9 -50 -27 -77 -77
-113 -51 -38 -69 -38 -111 0 -20 17 -46 30 -61 30 -22 0 -26 -4 -26 -28 0 -23
7 -31 38 -45 41 -18 172 -24 172 -8 0 5 12 13 28 19 34 12 91 70 97 97 18 100
25 137 35 185 6 30 14 90 17 132 5 66 4 78 -11 84 -26 10 -46 -15 -46 -56 0
-21 -7 -57 -15 -80 -8 -23 -15 -60 -15 -81 0 -62 -51 -99 -136 -99 -32 0 -46
5 -51 16 -9 23 12 170 33 233 14 45 15 55 3 66 -10 10 -19 11 -29 5z"/>
<path d="M3452 68 c7 -19 38 -22 38 -4 0 10 -9 16 -21 16 -12 0 -19 -5 -17
-12z"/>
</g>
</g>
</svg>
